# xmcd
#
# Track frame offsets:
#	150
#	16670
#	32556
#	52767
#	67820
#	86507
#	107291
#	125538
#	143354
#	163421
#	180050
#
# Disc length: 2658 seconds
#
# Revision: 1
# Processed by: cddbd v1.5.1PL2 Copyright (c) Steve Scherf et al.
# Submitted via: audiograbber 1.83.01
#
DISCID=710a600b
DTITLE=Walt Wilkins - Hopewell
DYEAR=2006
DGENRE=Folk
TTITLE0=Going Up to Fort Worth
TTITLE1=Standing by the Rambler
TTITLE2=The Angels' Share
TTITLE3=Some Days a Dollar
TTITLE4=18 Days of Rain
TTITLE5=Up and On My Way
TTITLE6=Blanco River Meditation #2
TTITLE7=Above these Wheels
TTITLE8=Absolut Crazy
TTITLE9=Walk Through This World With Me
TTITLE10=Down the Track
EXTD=Produced by Walt Wilkins and Tim Lorsch for Bull Creek Productionis and Highwa
EXTD=y 29 Records.
EXTT0=
EXTT1=
EXTT2=
EXTT3=
EXTT4=
EXTT5=
EXTT6=
EXTT7=
EXTT8=
EXTT9=
EXTT10=
PLAYORDER=
